<?xml version="1.0" standalone="no"?>
<!DOCTYPE svg PUBLIC "-//W3C//DTD SVG 20010904//EN"
 "http://www.w3.org/TR/2001/REC-SVG-20010904/DTD/svg10.dtd">
<svg version="1.0" xmlns="http://www.w3.org/2000/svg"
 width="47.000000pt" height="47.000000pt" viewBox="0 0 47.000000 47.000000"
 preserveAspectRatio="xMidYMid meet">

<g transform="translate(0.000000,47.000000) scale(0.100000,-0.100000)"
fill="#000000" stroke="none">
<path d="M142 429 c-53 -27 -99 -81 -113 -134 -13 -47 -7 -122 11 -138 10 -10
11 -8 6 8 -29 77 -12 152 48 211 68 68 167 81 246 32 l35 -22 -25 -6 -25 -7
27 -8 c42 -11 58 0 57 37 0 30 -1 31 -9 10 l-10 -23 -41 28 c-57 38 -146 43
-207 12z"/>
<path d="M168 333 l-58 -26 0 -68 0 -69 62 -31 62 -31 63 31 63 31 0 69 0 68
-59 27 c-32 14 -62 26 -67 25 -5 0 -35 -12 -66 -26z m92 7 c17 -11 16 -12 -38
-39 -40 -20 -82 -21 -82 -2 0 8 79 49 95 50 6 0 17 -3 25 -9z m54 -26 c26 -10
18 -20 -32 -41 -36 -15 -54 -18 -67 -10 -16 9 -13 13 26 33 49 26 51 26 73 18z
m-86 -127 c2 -31 0 -57 -3 -57 -3 0 -28 11 -55 25 l-50 25 0 55 0 55 53 -23
52 -23 3 -57z m122 48 l0 -55 -50 -25 c-27 -14 -52 -25 -55 -25 -3 0 -5 25 -5
56 l0 55 53 24 c28 13 53 24 55 24 1 1 2 -24 2 -54z"/>
<path d="M164 225 c11 -8 25 -15 30 -15 6 0 2 7 -8 15 -11 8 -25 15 -30 15 -6
0 -2 -7 8 -15z"/>
<path d="M433 276 c31 -138 -104 -270 -242 -236 -51 12 -109 49 -78 50 9 0 17
5 17 11 0 6 -14 9 -33 7 -29 -3 -32 -6 -34 -38 0 -19 1 -25 4 -12 5 27 8 27
41 3 123 -86 295 -24 333 119 12 46 5 140 -10 140 -5 0 -4 -20 2 -44z"/>
</g>
</svg>
