<?xml version="1.0" standalone="no"?>
<!DOCTYPE svg PUBLIC "-//W3C//DTD SVG 20010904//EN"
 "http://www.w3.org/TR/2001/REC-SVG-20010904/DTD/svg10.dtd">
<svg version="1.0" xmlns="http://www.w3.org/2000/svg"
 width="46.000000pt" height="46.000000pt" viewBox="0 0 46.000000 46.000000"
 preserveAspectRatio="xMidYMid meet">

<g transform="translate(0.000000,46.000000) scale(0.100000,-0.100000)"
fill="#000000" stroke="none">
<path d="M308 424 c-3 -35 -6 -38 -51 -49 -85 -22 -137 -89 -137 -177 l0 -53
35 38 c37 41 88 67 130 67 23 0 25 -4 25 -40 0 -22 4 -40 8 -40 11 0 142 135
142 147 0 10 -132 143 -142 143 -4 0 -8 -16 -10 -36z m112 -106 c0 -4 -17 -27
-37 -49 -37 -41 -38 -41 -43 -18 -6 21 -12 24 -56 24 -31 0 -65 -9 -92 -23
l-43 -22 6 22 c16 51 66 89 130 97 29 4 43 12 50 28 9 22 10 22 47 -14 21 -20
38 -41 38 -45z"/>
<path d="M10 361 c-5 -11 -10 -87 -10 -174 0 -136 2 -156 18 -170 16 -15 46
-17 214 -17 239 0 228 -7 228 134 0 74 -3 97 -12 94 -9 -3 -15 -36 -18 -99
l-5 -94 -195 0 -195 0 -3 157 -3 157 47 3 c70 4 70 28 0 28 -44 0 -57 -4 -66
-19z"/>
</g>
</svg>
