<?xml version="1.0" standalone="no"?>
<!DOCTYPE svg PUBLIC "-//W3C//DTD SVG 20010904//EN"
 "http://www.w3.org/TR/2001/REC-SVG-20010904/DTD/svg10.dtd">
<svg version="1.0" xmlns="http://www.w3.org/2000/svg"
 width="47.000000pt" height="47.000000pt" viewBox="0 0 47.000000 47.000000"
 preserveAspectRatio="xMidYMid meet">

<g transform="translate(0.000000,47.000000) scale(0.100000,-0.100000)"
fill="#000000" stroke="none">
<path d="M193 454 c-3 -8 -2 -21 1 -30 6 -14 1 -16 -35 -10 -26 4 -38 3 -34
-4 3 -5 19 -10 36 -10 16 0 29 -4 29 -10 0 -5 -8 -10 -19 -10 -10 0 -24 -7
-31 -15 -8 -9 -9 -15 -2 -15 6 0 14 5 17 10 3 6 13 10 22 10 10 0 4 -13 -21
-41 -40 -43 -56 -77 -56 -115 0 -24 -14 -32 -25 -14 -3 6 -19 10 -36 10 l-29
0 0 -100 0 -100 29 0 c17 0 32 4 36 9 3 6 22 4 47 -5 22 -7 71 -14 108 -14 62
0 72 3 146 48 64 39 79 53 79 73 0 16 -6 25 -20 27 -17 2 -20 9 -17 45 4 44
-31 126 -57 135 -7 2 -1 -13 12 -34 53 -82 45 -148 -22 -179 -41 -18 -42 -18
-57 3 -10 14 -30 23 -62 27 -72 10 -122 35 -122 63 0 31 26 80 62 118 28 30
32 31 99 28 59 -2 68 0 53 10 -12 10 -15 20 -10 42 14 61 16 59 -52 60 -45 1
-65 -3 -69 -12z m117 -11 c0 -2 -5 -13 -10 -24 -16 -29 -74 -26 -88 5 -9 21
-8 25 6 28 21 4 92 -3 92 -9z m-10 -63 c0 -5 -20 -10 -45 -10 -25 0 -45 5 -45
10 0 6 20 10 45 10 25 0 45 -4 45 -10z m-240 -205 c0 -26 15 -34 23 -12 3 9
11 9 38 -2 19 -7 61 -19 94 -25 42 -9 61 -17 63 -29 3 -13 -4 -17 -33 -17 -22
0 -34 -4 -30 -10 11 -18 65 -10 137 20 126 54 134 31 13 -42 -69 -42 -85 -48
-134 -48 -31 0 -77 8 -103 17 -46 16 -48 19 -48 55 0 21 -4 38 -10 38 -5 0
-10 -22 -10 -50 0 -43 -3 -50 -20 -50 -19 0 -20 7 -20 90 0 83 1 90 20 90 15
0 20 -7 20 -25z"/>
<path d="M238 310 c-22 -21 -23 -49 -3 -56 21 -8 20 -54 -2 -54 -15 0 -14 -2
3 -19 19 -18 20 -17 42 6 27 29 27 35 2 58 -22 20 -27 51 -9 57 8 3 7 7 -2 15
-11 8 -18 6 -31 -7z m42 -96 c0 -8 -4 -14 -10 -14 -5 0 -10 9 -10 21 0 11 5
17 10 14 6 -3 10 -13 10 -21z"/>
</g>
</svg>
