<?xml version="1.0" standalone="no"?>
<!DOCTYPE svg PUBLIC "-//W3C//DTD SVG 20010904//EN"
 "http://www.w3.org/TR/2001/REC-SVG-20010904/DTD/svg10.dtd">
<svg version="1.0" xmlns="http://www.w3.org/2000/svg"
 width="47.000000pt" height="47.000000pt" viewBox="0 0 47.000000 47.000000"
 preserveAspectRatio="xMidYMid meet">

<g transform="translate(0.000000,47.000000) scale(0.100000,-0.100000)"
fill="#000000" stroke="none">
<path d="M16 384 c-23 -23 -23 -275 0 -298 23 -24 415 -24 438 0 23 23 23 275
0 298 -23 24 -415 24 -438 0z m104 -50 c0 -41 -2 -45 -20 -39 -31 10 -60 -12
-60 -45 0 -17 -4 -30 -10 -30 -11 0 -14 142 -3 153 3 4 26 7 50 7 l43 0 0 -46z
m58 -11 c-2 -44 -7 -58 -18 -58 -11 0 -16 14 -18 58 -3 52 -1 57 18 57 19 0
21 -5 18 -57z m270 -25 l3 -78 -86 0 -85 0 0 30 c0 34 -29 55 -66 46 -23 -6
-24 -4 -24 39 l0 46 128 -3 127 -3 3 -77z m-316 -45 l28 -27 29 28 c35 34 65
31 69 -5 2 -19 -4 -33 -22 -47 -25 -19 -25 -20 -6 -37 16 -14 17 -21 8 -32 -9
-11 -17 -8 -45 19 l-33 32 -33 -32 c-31 -30 -35 -31 -48 -16 -11 14 -11 18 5
30 18 12 17 14 -8 44 -21 25 -24 35 -16 51 15 26 39 24 72 -8z m-70 -57 c21
-16 13 -26 -19 -26 -16 0 -23 6 -23 20 0 23 17 25 42 6z m388 -6 c0 -19 -7
-20 -99 -20 -55 0 -102 4 -106 9 -11 19 32 30 118 31 80 0 87 -2 87 -20z
m-391 -62 c25 -28 31 -30 45 -19 14 11 16 11 16 -3 0 -14 -9 -17 -47 -14 -46
3 -48 4 -51 36 -2 17 -1 32 3 32 3 0 18 -14 34 -32z m389 0 l-3 -33 -127 -3
c-85 -2 -128 1 -128 8 0 6 10 8 23 5 17 -4 27 1 42 25 20 30 21 30 108 30 l88
0 -3 -32z m-270 -11 c3 -22 -1 -27 -17 -27 -15 0 -21 6 -21 23 0 46 33 49 38
4z"/>
<path d="M74 245 c-9 -21 14 -45 42 -45 28 0 30 7 8 38 -18 25 -42 29 -50 7z
m41 -15 c3 -5 -1 -10 -9 -10 -9 0 -16 5 -16 10 0 6 4 10 9 10 6 0 13 -4 16
-10z"/>
<path d="M188 235 c-6 -14 -8 -28 -5 -31 11 -11 54 5 61 22 15 40 -38 48 -56
9z m42 -5 c0 -5 -7 -10 -15 -10 -8 0 -15 5 -15 10 0 6 7 10 15 10 8 0 15 -4
15 -10z"/>
</g>
</svg>
