<?xml version="1.0" standalone="no"?>
<!DOCTYPE svg PUBLIC "-//W3C//DTD SVG 20010904//EN"
 "http://www.w3.org/TR/2001/REC-SVG-20010904/DTD/svg10.dtd">
<svg version="1.0" xmlns="http://www.w3.org/2000/svg"
 width="47.000000pt" height="47.000000pt" viewBox="0 0 47.000000 47.000000"
 preserveAspectRatio="xMidYMid meet">

<g transform="translate(0.000000,47.000000) scale(0.100000,-0.100000)"
fill="#000000" stroke="none">
<path d="M345 400 c-3 -5 -22 -10 -40 -10 -24 0 -38 -6 -45 -20 -9 -16 -23
-20 -88 -23 l-77 -3 76 -2 c59 -2 78 -6 83 -17 8 -23 -9 -26 -130 -23 -89 2
-109 6 -109 18 0 9 13 18 35 22 l35 6 -40 -1 -40 -2 -3 -120 c-4 -183 -28
-165 213 -165 l205 0 10 26 c6 14 10 54 10 88 0 35 7 80 16 101 8 20 14 53 12
73 -3 35 -5 37 -43 40 -22 2 -44 8 -49 13 -13 12 -23 12 -31 -1z m108 -34 c20
-29 -18 -124 -64 -158 -25 -19 -28 -19 -51 -4 -37 24 -70 90 -66 133 3 36 5
38 43 43 54 7 128 0 138 -14z m-185 -99 c3 -16 -6 -17 -125 -15 -113 3 -128 5
-131 21 -3 16 6 17 125 15 113 -3 128 -5 131 -21z m46 -57 c33 -34 52 -37 84
-14 l23 16 -3 -69 -3 -68 -194 -3 c-149 -2 -196 1 -203 10 -4 7 -8 46 -8 86
l0 72 138 0 137 -1 29 -29z"/>
<path d="M335 358 c-11 -6 -23 -16 -27 -22 -11 -15 -10 -66 1 -66 4 0 6 11 4
23 -9 44 54 76 85 45 31 -31 -1 -94 -45 -85 -12 2 -23 0 -23 -4 0 -11 51 -12
66 -1 42 27 35 95 -11 112 -31 12 -25 12 -50 -2z"/>
<path d="M375 310 c-14 -15 -21 -17 -32 -9 -10 9 -13 8 -13 0 0 -22 32 -24 53
-3 11 12 18 24 16 27 -3 3 -14 -4 -24 -15z"/>
<path d="M42 188 c3 -28 7 -33 32 -36 15 -2 39 -1 53 3 19 4 24 11 21 33 -3
25 -7 27 -56 30 l-53 3 3 -33z m88 -3 c0 -11 -11 -15 -40 -15 -29 0 -40 4 -40
15 0 11 11 15 40 15 29 0 40 -4 40 -15z"/>
<path d="M187 144 c-16 -17 -7 -44 16 -43 12 0 16 3 10 6 -31 12 -8 23 47 23
69 0 82 -17 18 -23 -24 -2 -6 -4 40 -5 81 -2 83 -1 80 21 -3 21 -8 22 -104 25
-55 1 -103 0 -107 -4z m203 -24 c0 -5 -11 -10 -25 -10 -14 0 -25 5 -25 10 0 6
11 10 25 10 14 0 25 -4 25 -10z"/>
<path d="M68 103 c17 -2 47 -2 65 0 17 2 3 4 -33 4 -36 0 -50 -2 -32 -4z"/>
</g>
</svg>
