<?xml version="1.0" standalone="no"?>
<!DOCTYPE svg PUBLIC "-//W3C//DTD SVG 20010904//EN"
 "http://www.w3.org/TR/2001/REC-SVG-20010904/DTD/svg10.dtd">
<svg version="1.0" xmlns="http://www.w3.org/2000/svg"
 width="96.000000pt" height="96.000000pt" viewBox="0 0 96.000000 96.000000"
 preserveAspectRatio="xMidYMid meet">

<g transform="translate(0.000000,96.000000) scale(0.100000,-0.100000)"
fill="#000000" stroke="none">
<path d="M290 805 c0 -8 -22 -36 -49 -61 -60 -57 -80 -96 -60 -121 8 -9 57
-50 109 -91 52 -42 128 -106 168 -144 158 -149 358 -245 402 -193 19 23 2 51
-65 105 -35 28 -86 75 -113 105 -28 30 -56 55 -64 55 -10 0 -9 3 2 10 13 9 13
12 0 23 -9 6 -14 20 -12 30 2 11 -3 17 -15 18 -10 0 -13 3 -5 6 18 7 15 33 -5
33 -14 0 -15 2 -5 9 18 11 -39 141 -62 141 -8 0 -31 -15 -49 -34 -38 -38 -69
-39 -106 -5 -16 15 -21 32 -21 74 0 52 -1 55 -25 55 -15 0 -25 -6 -25 -15z
m214 -274 c6 -9 -67 -31 -103 -31 -36 0 -23 17 22 27 56 14 75 15 81 4z m50
-49 c5 -8 -78 -32 -110 -32 -28 0 -13 18 24 28 48 13 79 14 86 4z"/>
<path d="M90 553 c0 -22 9 -42 28 -62 34 -37 412 -283 486 -317 56 -25 156
-47 156 -34 0 4 -19 10 -43 12 -71 8 -162 56 -352 186 -197 136 -241 172 -261
217 l-13 30 -1 -32z"/>
<path d="M798 143 c7 -3 16 -2 19 1 4 3 -2 6 -13 5 -11 0 -14 -3 -6 -6z"/>
</g>
</svg>
