<!DOCTYPE svg PUBLIC "-//W3C//DTD SVG 1.1//EN" "http://www.w3.org/Graphics/SVG/1.1/DTD/svg11.dtd">
<!-- Uploaded to: SVG Repo, www.svgrepo.com, Transformed by: SVG Repo Mixer Tools -->
<svg height="800px" width="800px" version="1.1" id="_x32_" xmlns="http://www.w3.org/2000/svg" xmlns:xlink="http://www.w3.org/1999/xlink" viewBox="0 0 512 512" xml:space="preserve" fill="#000000" transform="matrix(-1, 0, 0, 1, 0, 0)">
<g id="SVGRepo_bgCarrier" stroke-width="0"/>
<g id="SVGRepo_tracerCarrier" stroke-linecap="round" stroke-linejoin="round"/>
<g id="SVGRepo_iconCarrier"> <style type="text/css"> .st0{fill:#000000;} </style> <g> <path class="st0" d="M499.406,193.113c-11.38-26.55-37.178-41.43-116.552-44.46c-30.249-1.159-65.486,2.563-98.535,8.288 l23.888,20.465c22.26-5.233,41.744-6.392,77.241-3.43c47.161,3.929,88.069,11.77,70.742,25.69 c-36.672,18.332-102.149,18.332-145.996,1.105c-16.222-6.376-29.106-19.628-29.106-19.628l-34.622-31.922 c0,0-7.466-9.178-17.802-11.242c-4.688-0.936-13.26,1.864-20.197,6.592c-36.218,24.647-101.305,47.207-136.695,48.972 c-42.166,2.118-101.206,46.394-54.82,115.97c40.401,60.598,160.46,68.762,231.931,63.252c54.083-4.167,64.557-27.74,64.557-27.74 c20.956-19.644,34.055,1.312,34.055,1.312c7.858,13.099,17.38,24.325,26.19,24.325c0,0,24.893,0,41.767,0 c16.866,0,52.709-4.22,67.466-21.087C536.077,284.788,500.273,195.13,499.406,193.113z"/> </g> </g>
</svg>