<?xml version="1.0" standalone="no"?>
<!DOCTYPE svg PUBLIC "-//W3C//DTD SVG 20010904//EN"
 "http://www.w3.org/TR/2001/REC-SVG-20010904/DTD/svg10.dtd">
<svg version="1.0" xmlns="http://www.w3.org/2000/svg"
 width="960.000000pt" height="960.000000pt" viewBox="0 0 960.000000 960.000000"
 preserveAspectRatio="xMidYMid meet">

<g transform="translate(0.000000,960.000000) scale(0.100000,-0.100000)"
fill="#000000" stroke="none">
<path d="M0 4800 l0 -4800 4800 0 4800 0 0 4800 0 4800 -4800 0 -4800 0 0
-4800z m7044 1869 c177 -20 322 -45 436 -76 30 -8 71 -18 90 -23 49 -11 201
-66 277 -101 35 -16 68 -29 74 -29 6 0 9 -5 7 -11 -3 -9 -453 -224 -1023 -489
-414 -191 -1342 -633 -1542 -734 -117 -58 -219 -106 -226 -106 -31 0 -52 336
-27 442 56 243 86 322 181 463 133 197 296 338 519 450 235 117 421 170 755
214 89 13 375 12 479 0z m-2939 -23 c90 -15 200 -38 265 -55 127 -35 151 -43
220 -71 102 -41 165 -74 255 -134 84 -56 205 -168 205 -189 0 -10 -20 -33
-165 -192 -50 -55 -140 -154 -201 -220 -60 -66 -113 -125 -119 -131 -40 -42
-221 -240 -269 -294 -32 -36 -67 -73 -76 -84 -17 -18 -20 -17 -81 32 -130 101
-253 137 -444 129 -66 -3 -136 -10 -155 -17 -19 -6 -51 -15 -70 -21 -225 -67
-410 -283 -471 -549 -17 -73 -17 -246 0 -301 33 -110 93 -206 166 -271 46 -40
139 -88 170 -88 12 0 25 -3 28 -7 8 -8 22 0 -538 -303 -236 -128 -536 -291
-665 -363 l-234 -130 -44 49 c-92 103 -261 391 -262 446 0 9 -4 19 -9 22 -5 3
-11 16 -14 28 -3 13 -14 59 -25 103 -49 198 -62 374 -45 593 14 186 24 254 57
388 174 707 655 1252 1336 1513 177 68 359 109 585 131 118 12 495 3 600 -14z
m3598 -1038 c-126 -145 -236 -264 -244 -266 -8 -1 -28 9 -45 23 -48 43 -110
84 -196 130 -78 42 -81 44 -57 54 189 85 765 328 768 326 2 -2 -100 -122 -226
-267z m-998 -325 c27 -7 176 -50 245 -70 390 -114 680 -316 822 -573 33 -59
64 -143 83 -227 21 -85 23 -370 5 -470 -57 -304 -224 -556 -495 -747 -139 -98
-353 -200 -495 -236 -19 -4 -60 -15 -90 -23 -50 -13 -124 -27 -311 -57 -100
-16 -524 -13 -654 5 -153 21 -273 41 -352 60 -38 9 -79 18 -93 21 -78 16 -287
90 -400 142 -64 29 -224 125 -267 159 -23 18 -45 33 -48 33 -4 0 -28 -15 -54
-34 -184 -135 -410 -240 -681 -316 -257 -72 -703 -92 -1009 -45 -98 15 -124
20 -221 46 -113 29 -319 107 -355 135 -20 15 -20 15 0 27 39 24 547 310 645
364 459 252 824 450 1113 603 137 72 112 82 209 -84 35 -59 81 -139 103 -176
22 -38 76 -130 120 -205 44 -74 89 -148 101 -162 l21 -26 25 29 c34 38 226
267 441 524 95 113 186 221 204 240 18 19 33 38 33 43 0 17 25 4 78 -40 31
-27 63 -54 70 -61 14 -13 179 -112 187 -112 3 0 24 -9 48 -19 173 -78 412
-122 554 -101 142 20 203 64 203 146 0 98 -78 150 -360 240 -185 58 -251 81
-320 109 -157 65 -331 166 -405 236 -22 21 -43 39 -47 39 -5 0 -8 5 -8 10 0
12 79 50 710 342 575 267 554 258 594 246 17 -5 40 -12 51 -15z"/>
</g>
</svg>
